<svg width="746" height="746" viewBox="0 0 746 746" fill="none" xmlns="http://www.w3.org/2000/svg">
    <def>
        <path d="M599.504 569.989L651.491 622.043C777.503 480.971 777.503 266.157 651.491 125.085L599.504 177.138C697.074 289.417 697.074 457.647 599.504 569.927V569.989Z" fill="#475F70"/>
        <path d="M73.2164 373.564C73.2164 300.567 99.1054 231.594 146.495 177.145L94.5921 125.085C33.4739 193.555 0 280.95 0 373.564C0 466.178 33.4739 553.635 94.5921 622.043L146.495 569.983C99.1681 515.471 73.2164 446.498 73.2164 373.564Z" fill="#475F70"/>
        <path d="M373.563 73.2164C446.56 73.2164 515.47 99.1054 569.982 146.495L622.042 94.5921C553.635 33.4739 466.177 0 373.563 0C280.95 0 193.554 33.4739 125.084 94.5921L177.144 146.495C231.656 99.1681 300.566 73.2164 373.563 73.2164Z" fill="#475F70"/>
        <path d="M177.138 599.504L125.084 651.474C195.62 714.491 284.576 745.999 373.595 745.999C462.613 745.999 551.506 714.491 622.042 651.474L569.989 599.504C457.647 697.042 289.48 696.979 177.201 599.504H177.138Z" fill="#475F70"/>
    </def>
</svg>
