<svg width="373" height="373" viewBox="0 0 373 373" fill="none" xmlns="http://www.w3.org/2000/svg">
<g opacity="0.6">
<path d="M299.752 284.995L325.745 311.022C388.751 240.486 388.751 133.079 325.745 62.543L299.752 88.5696C348.537 144.709 348.537 228.824 299.752 284.964V284.995Z" fill="#475F70"/>
<path d="M36.6082 186.782C36.6082 150.284 49.5527 115.797 73.2477 88.5729L47.296 62.543C16.737 96.778 0 140.476 0 186.782C0 233.089 16.737 276.818 47.296 311.022L73.2477 284.992C49.584 257.736 36.6082 223.249 36.6082 186.782Z" fill="#475F70"/>
<path d="M186.782 36.6082C223.28 36.6082 257.735 49.5527 284.991 73.2477L311.021 47.296C276.817 16.737 233.088 0 186.782 0C140.475 0 96.7772 16.737 62.5422 47.296L88.5722 73.2477C115.828 49.584 150.283 36.6082 186.782 36.6082Z" fill="#475F70"/>
<path d="M88.5689 299.752L62.5422 325.737C97.8102 357.245 142.288 373 186.797 373C231.307 373 275.753 357.245 311.021 325.737L284.994 299.752C228.823 348.521 144.74 348.49 88.6003 299.752H88.5689Z" fill="#475F70"/>
</g>
</svg>
