<svg width="448" height="448" viewBox="0 0 448 448" fill="none" xmlns="http://www.w3.org/2000/svg">
<g opacity="0.6">
<path d="M360.024 342.3L391.244 373.559C466.919 288.841 466.919 159.837 391.244 75.1182L360.024 106.378C418.618 173.806 418.618 274.834 360.024 342.262V342.3Z" fill="#475F70"/>
<path d="M43.9691 224.339C43.9691 180.501 59.5164 139.081 87.9759 106.382L56.806 75.1182C20.1023 116.237 0 168.721 0 224.339C0 279.957 20.1023 332.478 56.806 373.559L87.9759 342.296C59.5541 309.559 43.9691 268.138 43.9691 224.339Z" fill="#475F70"/>
<path d="M224.338 43.9691C268.176 43.9691 309.559 59.5164 342.295 87.9759L373.559 56.806C332.478 20.1023 279.956 0 224.338 0C168.721 0 116.237 20.1023 75.1178 56.806L106.382 87.9759C139.118 59.5541 180.501 43.9691 224.338 43.9691Z" fill="#475F70"/>
<path d="M106.378 360.024L75.1178 391.234C117.477 429.078 170.898 448 224.357 448C277.816 448 331.2 429.078 373.559 391.234L342.299 360.024C274.834 418.6 173.843 418.562 106.415 360.024H106.378Z" fill="#475F70"/>
</g>
</svg>
