<svg width="398" height="398" viewBox="0 0 398 398" fill="none" xmlns="http://www.w3.org/2000/svg">
<g opacity="0.6">
<path d="M319.843 304.096L347.578 331.867C414.807 256.604 414.807 141.998 347.578 66.7344L319.843 94.5054C371.897 154.408 371.897 244.161 319.843 304.063V304.096Z" fill="#475F70"/>
<path d="M39.0618 199.301C39.0618 160.356 52.874 123.558 78.1571 94.5089L50.466 66.7344C17.8588 103.264 0 149.89 0 199.301C0 248.711 17.8588 295.371 50.466 331.867L78.1571 304.093C52.9074 275.01 39.0618 238.212 39.0618 199.301Z" fill="#475F70"/>
<path d="M199.301 39.0618C238.245 39.0618 275.01 52.874 304.093 78.1571L331.867 50.466C295.371 17.8588 248.711 0 199.301 0C149.89 0 103.264 17.8588 66.7341 50.466L94.5087 78.1571C123.591 52.9074 160.356 39.0618 199.301 39.0618Z" fill="#475F70"/>
<path d="M94.5052 319.843L66.7341 347.569C104.366 381.19 151.825 398 199.317 398C246.81 398 294.235 381.19 331.867 347.569L304.096 319.843C244.16 371.881 154.441 371.847 94.5387 319.843H94.5052Z" fill="#475F70"/>
</g>
</svg>
